<svg xmlns="http://www.w3.org/2000/svg" width="44.588" height="50.567" viewBox="0 0 44.588 50.567">
  <g id="_22" data-name="22" transform="translate(0.318 0.317)">
    <g id="Fill_1" data-name="Fill 1" transform="translate(18.822 15.287)" fill="#fff" stroke-miterlimit="10">
      <path d="M 8.986499786376953 17.72299957275391 C 4.169179916381836 17.72299957275391 0.2499997913837433 13.80381965637207 0.2499997913837433 8.986499786376953 C 0.2499997913837433 4.169179916381836 4.169179916381836 0.2499997913837433 8.986499786376953 0.2499997913837433 C 13.80381965637207 0.2499997913837433 17.72299957275391 4.169179916381836 17.72299957275391 8.986499786376953 C 17.72299957275391 13.80381965637207 13.80381965637207 17.72299957275391 8.986499786376953 17.72299957275391 Z M 9.26569938659668 13.30373001098633 L 9.26569938659668 13.5629997253418 L 9.26569938659668 16.83180046081543 L 9.26569938659668 17.1722297668457 L 9.590519905090332 17.07033920288086 C 10.60727024078369 16.75140953063965 11.51788997650146 15.6392297744751 12.15462970733643 13.93865966796875 L 12.25694942474365 13.66536998748779 L 11.97119998931885 13.6061897277832 C 11.17832946777344 13.4419994354248 10.35524940490723 13.34340953826904 9.524799346923828 13.31316947937012 L 9.26569938659668 13.30373001098633 Z M 8.708199501037598 13.30373001098633 L 8.449099540710449 13.31316947937012 C 7.61860990524292 13.34340953826904 6.795519828796387 13.4419994354248 6.002699851989746 13.6061897277832 L 5.717089653015137 13.66533946990967 L 5.819229602813721 13.93854999542236 C 6.455029964447021 15.63918972015381 7.365689754486084 16.75141906738281 8.383440017700195 17.07036018371582 L 8.708199501037598 17.1721305847168 L 8.708199501037598 16.83180046081543 L 8.708199501037598 13.5629997253418 L 8.708199501037598 13.30373001098633 Z M 12.80300998687744 13.80029964447021 L 12.72328948974609 14.0192699432373 C 12.39737987518311 14.91440963745117 11.99008941650391 15.67504978179932 11.51274013519287 16.28003883361816 L 10.96560001373291 16.97348022460938 L 11.79498958587646 16.66963958740234 C 12.8831901550293 16.27099990844727 13.86021995544434 15.65322971343994 14.69893932342529 14.83348941802979 L 14.96947002410889 14.56907939910889 L 14.62018013000488 14.42385959625244 C 14.09142017364502 14.20401000976562 13.55540943145752 14.01581001281738 13.02703952789307 13.86445999145508 L 12.80300998687744 13.80029964447021 Z M 5.169759750366211 13.80025005340576 L 4.945849895477295 13.86450004577637 C 4.41025972366333 14.01816940307617 3.874469757080078 14.20641994476318 3.35336971282959 14.42399978637695 L 3.00508975982666 14.56942939758301 L 3.27485990524292 14.83339023590088 C 4.112119674682617 15.65263938903809 5.089179992675781 16.27045059204102 6.178909778594971 16.66963958740234 L 7.008289813995361 16.97347068786621 L 6.461159706115723 16.28003883361816 C 5.984329700469971 15.67570018768311 5.576709747314453 14.91499996185303 5.249639987945557 14.01906967163086 L 5.169759750366211 13.80025005340576 Z M 13.53997993469238 9.26569938659668 L 13.53271007537842 9.508210182189941 C 13.49533939361572 10.75562953948975 13.3274097442627 11.94112968444824 13.03360939025879 13.03176975250244 L 12.96974945068359 13.26882934570312 L 13.20559978485107 13.33697986602783 C 13.87376022338867 13.53003025054932 14.53244018554688 13.77015018463135 15.16333961486816 14.05064010620117 L 15.34289932250977 14.13046932220459 L 15.46288967132568 13.97484016418457 C 16.45663070678711 12.68591022491455 17.03866004943848 11.14968967437744 17.14604949951172 9.532259941101074 L 17.16374969482422 9.26569938659668 L 16.8966007232666 9.26569938659668 L 13.78259944915771 9.26569938659668 L 13.53997993469238 9.26569938659668 Z M 0.8102297782897949 9.26569938659668 L 0.8278397917747498 9.53218936920166 C 0.9349297881126404 11.15190982818604 1.517009735107422 12.68822002410889 2.511159896850586 13.9750394821167 L 2.631239891052246 14.13046932220459 L 2.81067967414856 14.0505895614624 C 3.440119743347168 13.77034950256348 4.098459720611572 13.53026008605957 4.767399787902832 13.33697986602783 L 5.003249645233154 13.26882934570312 L 4.939389705657959 13.03176975250244 C 4.645279884338379 11.9399995803833 4.477659702301025 10.75455951690674 4.441189765930176 9.508389472961426 L 4.434089660644531 9.26569938659668 L 4.191299915313721 9.26569938659668 L 1.077299833297729 9.26569938659668 L 0.8102297782897949 9.26569938659668 Z M 9.26569938659668 9.26569938659668 L 9.26569938659668 9.51569938659668 L 9.26569938659668 12.50549983978271 L 9.26569938659668 12.74738025665283 L 9.507439613342285 12.7553596496582 C 10.41586017608643 12.78537940979004 11.31913948059082 12.89529991149902 12.19219970703125 13.08206939697266 L 12.42409992218018 13.13167953491211 L 12.48586940765381 12.90271949768066 C 12.77034950256348 11.84823989868164 12.93459987640381 10.71146965026855 12.97406005859375 9.52400016784668 L 12.98264980316162 9.26569938659668 L 12.72420024871826 9.26569938659668 L 9.51569938659668 9.26569938659668 L 9.26569938659668 9.26569938659668 Z M 4.99144983291626 9.26569938659668 L 4.999829769134521 9.523819923400879 C 5.038290023803711 10.70769023895264 5.202539920806885 11.84451007843018 5.488029956817627 12.90271949768066 L 5.549799919128418 13.13167953491211 L 5.781699657440186 13.08206939697266 C 6.654769897460938 12.89529991149902 7.55804967880249 12.78537940979004 8.466460227966309 12.7553596496582 L 8.708199501037598 12.74738025665283 L 8.708199501037598 12.50549983978271 L 8.708199501037598 9.51569938659668 L 8.708199501037598 9.26569938659668 L 8.458199501037598 9.26569938659668 L 5.249699592590332 9.26569938659668 L 4.99144983291626 9.26569938659668 Z M 15.34288024902344 3.843429803848267 L 15.16333961486816 3.923259735107422 C 14.53065013885498 4.204549789428711 13.87206935882568 4.444329738616943 13.20590019226074 4.635939598083496 L 12.96971988677979 4.703869819641113 L 13.03358936309814 4.941179752349854 C 13.32744026184082 6.032889842987061 13.49536991119385 7.218709945678711 13.53271007537842 8.465680122375488 L 13.5399694442749 8.708199501037598 L 13.78259944915771 8.708199501037598 L 16.8966007232666 8.708199501037598 L 17.16365051269531 8.708199501037598 L 17.14605903625488 8.441729545593262 C 17.03927993774414 6.824749946594238 16.45723915100098 5.28849983215332 15.46286964416504 3.999029874801636 L 15.34288024902344 3.843429803848267 Z M 12.4240894317627 4.841089725494385 L 12.191969871521 4.890979766845703 C 11.32077980041504 5.078229904174805 10.41757011413574 5.188439846038818 9.507439613342285 5.218539714813232 L 9.26569938659668 5.226529598236084 L 9.26569938659668 5.468400001525879 L 9.26569938659668 8.458199501037598 L 9.26569938659668 8.708199501037598 L 9.51569938659668 8.708199501037598 L 12.72420024871826 8.708199501037598 L 12.98263931274414 8.708199501037598 L 12.97406005859375 8.449899673461914 C 12.9346399307251 7.262909889221191 12.77040004730225 6.12585973739624 12.48587989807129 5.070339679718018 L 12.4240894317627 4.841089725494385 Z M 5.54980993270874 4.841089725494385 L 5.488009929656982 5.070339679718018 C 5.202479839324951 6.129669666290283 5.0382399559021 7.266779899597168 4.999829769134521 8.450089454650879 L 4.99144983291626 8.708199501037598 L 5.249699592590332 8.708199501037598 L 8.458199501037598 8.708199501037598 L 8.708199501037598 8.708199501037598 L 8.708199501037598 8.458199501037598 L 8.708199501037598 5.468400001525879 L 8.708199501037598 5.226519584655762 L 8.466460227966309 5.218539714813232 C 7.556509971618652 5.188469886779785 6.65330982208252 5.078259944915771 5.781929969787598 4.890979766845703 L 5.54980993270874 4.841089725494385 Z M 2.631239891052246 3.843429803848267 L 2.511159896850586 3.998859882354736 C 1.517169833183289 5.285519599914551 0.9350897669792175 6.821829795837402 0.827849805355072 8.441679954528809 L 0.8101997971534729 8.708199501037598 L 1.077299833297729 8.708199501037598 L 4.191299915313721 8.708199501037598 L 4.434099674224854 8.708199501037598 L 4.441189765930176 8.465509414672852 C 4.477619647979736 7.219810009002686 4.645249843597412 6.034049987792969 4.939409732818604 4.941179752349854 L 5.003279685974121 4.703869819641113 L 4.767109870910645 4.635939598083496 C 4.100179672241211 4.444109916687012 3.441939830780029 4.204349994659424 2.81067967414856 3.923309803009033 L 2.631239891052246 3.843429803848267 Z M 9.26569938659668 0.8004698157310486 L 9.26569938659668 1.141199827194214 L 9.26569938659668 4.409999847412109 L 9.26569938659668 4.668989658355713 L 9.524529457092285 4.659839630126953 C 10.34879970550537 4.630719661712646 11.17195987701416 4.532139778137207 11.97113990783691 4.366819858551025 L 12.25702953338623 4.307679653167725 L 12.15460968017578 4.034289836883545 C 11.51786994934082 2.334699869155884 10.60732936859131 1.222549796104431 9.590729713439941 0.9027197957038879 L 9.26569938659668 0.8004698157310486 Z M 8.708199501037598 0.8005597591400146 L 8.38323974609375 0.9026997685432434 C 7.365619659423828 1.222549796104431 6.455039978027344 2.334749698638916 5.819249629974365 4.034409999847412 L 5.717039585113525 4.307649612426758 L 6.002699851989746 4.366809844970703 C 6.800839900970459 4.532099723815918 7.624019622802734 4.63068962097168 8.449369430541992 4.659839630126953 L 8.708199501037598 4.668989658355713 L 8.708199501037598 4.409999847412109 L 8.708199501037598 1.141199827194214 L 8.708199501037598 0.8005597591400146 Z M 7.009399890899658 1.000019788742065 L 6.178909778594971 1.304259777069092 C 5.089769840240479 1.703239798545837 4.112739562988281 2.320709705352783 3.274959802627563 3.139509677886963 L 3.004859685897827 3.403489828109741 L 3.353379726409912 3.548999786376953 C 3.874569892883301 3.766609668731689 4.41034984588623 3.954849720001221 4.945849895477295 4.108500003814697 L 5.169759750366211 4.172749996185303 L 5.249639987945557 3.953929901123047 C 5.576900005340576 3.05748987197876 5.984479904174805 2.297139883041382 6.4610595703125 1.693989753723145 L 7.009399890899658 1.000019788742065 Z M 10.96448993682861 1.000019788742065 L 11.51284980773926 1.693989753723145 C 11.98993968963623 2.29777979850769 12.39719009399414 3.058069705963135 12.72328948974609 3.953729867935181 L 12.80300998687744 4.172709941864014 L 13.02705001831055 4.108529567718506 C 13.56272983551025 3.955079793930054 14.09885025024414 3.766819715499878 14.620530128479 3.548999786376953 L 14.9692497253418 3.403389692306519 L 14.69884014129639 3.139409780502319 C 13.85956954956055 2.320099830627441 12.88256931304932 1.702659845352173 11.79498958587646 1.304259777069092 L 10.96448993682861 1.000019788742065 Z" stroke="none"/>
      <path d="M 8.986499786376953 17.47299957275391 C 8.996211051940918 17.47299957275391 9.005996704101562 17.47298240661621 9.01569938659668 17.47294998168945 L 9.01569938659668 13.04445934295654 L 9.533900260925293 13.06332969665527 C 10.3782901763916 13.09407997131348 11.21537017822266 13.19435977935791 12.02188968658447 13.36139011383057 L 12.59340953826904 13.47974014282227 L 12.38875007629395 14.02632999420166 C 11.72441005706787 15.80062007904053 10.7572193145752 16.96639060974121 9.665349960327148 17.30887985229492 L 9.14689826965332 17.47150611877441 C 9.551267623901367 17.46395683288574 9.94902515411377 17.42799758911133 10.33782482147217 17.36551856994629 L 11.3164701461792 16.12519073486328 C 11.77730941772461 15.54113006591797 12.17158985137939 14.80381965637207 12.48836994171143 13.93373966217041 L 12.64781951904297 13.49578952789307 L 13.09587955474854 13.62413024902344 C 13.6334400177002 13.77810001373291 14.17857933044434 13.9694995880127 14.71615982055664 14.19301986694336 L 15.41473960876465 14.48346996307373 L 14.87368011474609 15.01227951049805 C 14.00949954986572 15.85690021514893 13.002610206604 16.49349975585938 11.88099002838135 16.90439033508301 L 10.96328449249268 17.24057579040527 C 14.69261646270752 16.34754943847656 17.47299957275391 12.98564147949219 17.47299957275391 8.986499786376953 C 17.47299957275391 4.984787464141846 14.68912315368652 1.621148467063904 10.95617389678955 0.7307242751121521 L 11.88099002838135 1.069509744644165 C 13.00194931030273 1.480149745941162 14.00876998901367 2.116369724273682 14.87346935272217 2.960519790649414 L 15.41429996490479 3.488479852676392 L 14.7168493270874 3.779689788818359 C 14.18624973297119 4.00124979019165 13.64087963104248 4.192739963531494 13.09589958190918 4.348869800567627 L 12.64783000946045 4.477219581604004 L 12.48836994171143 4.039259910583496 C 12.17142009735107 3.16871976852417 11.7772102355957 2.43179988861084 11.31668949127197 1.848989844322205 L 10.33539390563965 0.6070913076400757 C 9.947650909423828 0.544899582862854 9.551734924316406 0.5090916752815247 9.148512840270996 0.5015237331390381 L 9.665749549865723 0.6642497777938843 C 10.75735950469971 1.007669806480408 11.72439002990723 2.173359870910645 12.38871955871582 3.946579694747925 L 12.59356021881104 4.493359565734863 L 12.02178955078125 4.611629962921143 C 11.20886993408203 4.779789924621582 10.3716402053833 4.880069732666016 9.533349990844727 4.909689903259277 L 9.01569938659668 4.927979946136475 L 9.01569938659668 0.5000497698783875 C 8.996581077575684 0.4999853074550629 8.977322578430176 0.4999839961528778 8.958199501037598 0.5000465512275696 L 8.958199501037598 4.927969932556152 L 8.440549850463867 4.909689903259277 C 7.601159572601318 4.880039691925049 6.763889789581299 4.779749870300293 5.951999664306641 4.611609935760498 L 5.380669593811035 4.493289947509766 L 5.585089683532715 3.94681978225708 C 6.248459815979004 2.173439741134644 7.215569972991943 1.007649779319763 8.308279991149902 0.66420978307724 L 8.825955390930176 0.5014963150024414 C 8.422723770141602 0.509024441242218 8.02639102935791 0.5447717905044556 7.638636112213135 0.6069263219833374 L 6.657209873199463 1.848989844322205 C 6.197159767150879 2.431209802627563 5.802599906921387 3.168259859085083 5.484479904174805 4.039659976959229 L 5.324719905853271 4.477299690246582 L 4.876899719238281 4.348809719085693 C 4.33213996887207 4.19249963760376 3.787139892578125 4.001019954681396 3.257059812545776 3.779699802398682 L 2.560029745101929 3.488669872283936 L 3.1002197265625 2.96071982383728 C 3.963459730148315 2.117029905319214 4.970349788665771 1.480739831924438 6.092909812927246 1.069509744644165 L 7.019403457641602 0.7301096320152283 C 3.285248756408691 1.619665026664734 0.4999997913837433 4.983930587768555 0.4999997913837433 8.986499786376953 C 0.4999997913837433 12.98649883270264 3.281827449798584 16.34905052185059 7.012365341186523 17.24120903015137 L 6.092909812927246 16.90439033508301 C 4.969709873199463 16.49292945861816 3.962749719619751 15.8562593460083 3.100009679794312 15.01208019256592 L 2.560479879379272 14.48414993286133 L 3.257049798965454 14.19330978393555 C 3.787049770355225 13.97200965881348 4.332039833068848 13.78052997589111 4.876899719238281 13.62418937683105 L 5.324709892272949 13.49569988250732 L 5.484479904174805 13.93334007263184 C 5.802429676055908 14.80427932739258 6.197069644927979 15.54172992706299 6.657429695129395 16.12519073486328 L 7.636201858520508 17.36568260192871 C 8.025286674499512 17.42816925048828 8.422927856445312 17.46405982971191 8.827600479125977 17.47153472900391 L 8.308679580688477 17.30891990661621 C 7.215729713439941 16.9664192199707 6.248459815979004 15.80054950714111 5.585059642791748 14.02608966827393 L 5.38077974319458 13.4796895980835 L 5.951999664306641 13.36139011383057 C 6.758479595184326 13.19436931610107 7.595569610595703 13.09408950805664 8.439999580383301 13.06332969665527 L 8.958199501037598 13.04445934295654 L 8.958199501037598 17.47295379638672 C 8.967617988586426 17.47298431396484 8.97707462310791 17.47299957275391 8.986499786376953 17.47299957275391 M 13.29735946655273 9.01569938659668 L 17.43090057373047 9.01569938659668 L 17.39550018310547 9.548830032348633 C 17.28480911254883 11.21587944030762 16.68498992919922 12.79916000366211 15.66088008880615 14.12749004364014 L 15.42089939117432 14.43874931335449 L 15.06176948547363 14.27907943725586 C 14.44127941131592 14.00321006774902 13.79341983795166 13.76704978942871 13.13620948791504 13.57714939117432 L 12.66448974609375 13.44085025787354 L 12.79220962524414 12.96673965454102 C 13.08095932006836 11.89485931396484 13.2460298538208 10.72871971130371 13.2828197479248 9.500720024108887 L 13.29735946655273 9.01569938659668 M 0.5431497693061829 9.01569938659668 L 4.6768798828125 9.01569938659668 L 4.691089630126953 9.501070022583008 C 4.72698974609375 10.72776985168457 4.891749858856201 11.89379024505615 5.180789947509766 12.96673965454102 L 5.308509826660156 13.44085025787354 L 4.836789608001709 13.57714939117432 C 4.178839683532715 13.76725959777832 3.531359672546387 14.00338935852051 2.912359714508057 14.27898025512695 L 2.553489685058594 14.43874931335449 L 2.313329696655273 14.12788009643555 C 1.288699746131897 12.80160999298096 0.6887697577476501 11.21815013885498 0.5783897638320923 9.548689842224121 L 0.5431497693061829 9.01569938659668 M 9.01569938659668 9.01569938659668 L 13.24108982086182 9.01569938659668 L 13.22391986846924 9.532309532165527 C 13.18383026123047 10.7389497756958 13.01671981811523 11.89482975006104 12.72723960876465 12.96782970428467 L 12.60369968414307 13.42575931549072 L 12.13990020751953 13.32653999328613 C 11.28129005432129 13.14285945892334 10.39282989501953 13.03474998474121 9.499189376831055 13.00522994995117 L 9.01569938659668 12.98925018310547 L 9.01569938659668 9.01569938659668 M 4.733189582824707 9.01569938659668 L 8.958199501037598 9.01569938659668 L 8.958199501037598 12.98925018310547 L 8.474709510803223 13.00522994995117 C 7.581079959869385 13.03474998474121 6.692619800567627 13.14285945892334 5.833999633789062 13.32653999328613 L 5.370199680328369 13.42575931549072 L 5.246659755706787 12.96784019470215 C 4.956159591674805 11.8910493850708 4.789039611816406 10.73503971099854 4.749959945678711 9.531929969787598 L 4.733189582824707 9.01569938659668 M 15.42085933685303 3.535169839859009 L 15.66084003448486 3.846369743347168 C 16.68561935424805 5.175249576568604 17.28544998168945 6.758609771728516 17.39550971984863 8.425250053405762 L 17.43070983886719 8.958199501037598 L 13.29734992980957 8.958199501037598 L 13.2828197479248 8.473169326782227 C 13.24605941772461 7.245599746704102 13.08098983764648 6.079129695892334 12.79218006134033 5.006159782409668 L 12.6644401550293 4.531539916992188 L 13.13678932189941 4.395679950714111 C 13.79193019866943 4.207249641418457 14.43958950042725 3.971439838409424 15.06176948547363 3.694819688796997 L 15.42085933685303 3.535169839859009 M 12.60367965698242 4.546779632568359 L 12.72727012634277 5.005270004272461 C 13.01676940917969 6.079299926757812 13.18386936187744 7.23544979095459 13.22391986846924 8.441609382629395 L 13.24107933044434 8.958199501037598 L 9.01569938659668 8.958199501037598 L 9.01569938659668 4.984659671783447 L 9.49916934967041 4.968669891357422 C 10.39445972442627 4.939069747924805 11.28277015686035 4.830689907073975 12.13943004608154 4.646559715270996 L 12.60367965698242 4.546779632568359 M 5.370209693908691 4.546779632568359 L 5.834459781646729 4.646559715270996 C 6.691309928894043 4.830719947814941 7.579619884490967 4.939089775085449 8.474709510803223 4.968669891357422 L 8.958199501037598 4.984649658203125 L 8.958199501037598 8.958199501037598 L 4.733209609985352 8.958199501037598 L 4.749959945678711 8.44197940826416 C 4.788990020751953 7.239449977874756 4.956089973449707 6.083179950714111 5.24662971496582 5.005270004272461 L 5.370209693908691 4.546779632568359 M 2.553479671478271 3.535149812698364 L 2.912359714508057 3.69491982460022 C 3.533089876174927 3.971269845962524 4.180359840393066 4.207039833068848 4.836209774017334 4.395679950714111 L 5.308559894561768 4.531539916992188 L 5.180819988250732 5.006159782409668 C 4.891719818115234 6.080219745635986 4.726949691772461 7.246579647064209 4.691089630126953 8.472819328308105 L 4.676889896392822 8.958199501037598 L 0.5430997610092163 8.958199501037598 L 0.5783897638320923 8.425169944763184 C 0.6889297962188721 6.755579948425293 1.288859844207764 5.17212963104248 2.313319683074951 3.846019744873047 L 2.553479671478271 3.535149812698364 M 8.986499786376953 17.97299957275391 C 4.03132963180542 17.97299957275391 -2.136230534688366e-07 13.94166946411133 -2.136230534688366e-07 8.986499786376953 C -2.136230534688366e-07 4.03132963180542 4.03132963180542 -2.136230534688366e-07 8.986499786376953 -2.136230534688366e-07 C 13.94166946411133 -2.136230534688366e-07 17.97299957275391 4.03132963180542 17.97299957275391 8.986499786376953 C 17.97299957275391 13.94166946411133 13.94166946411133 17.97299957275391 8.986499786376953 17.97299957275391 Z M 9.51569938659668 13.5629997253418 L 9.51569938659668 16.83180046081543 C 10.45664978027344 16.53664970397949 11.31116008758545 15.47838973999023 11.92049980163574 13.85099983215332 C 11.14383983612061 13.69015979766846 10.33449935913086 13.5928201675415 9.51569938659668 13.5629997253418 Z M 8.458199501037598 13.5629997253418 C 7.641689777374268 13.59274005889893 6.832599639892578 13.68962955474854 6.053399562835693 13.85099983215332 C 6.661369800567627 15.47719955444336 7.515139579772949 16.53627014160156 8.458199501037598 16.83180046081543 L 8.458199501037598 13.5629997253418 Z M 12.9581995010376 14.1048002243042 C 12.62316989898682 15.02499961853027 12.20287990570068 15.8089599609375 11.70899963378906 16.43490028381348 C 12.76229953765869 16.04903984069824 13.70984935760498 15.4506196975708 14.52419948577881 14.65469932556152 C 14.00826930999756 14.44018936157227 13.48128986358643 14.25463008880615 12.9581995010376 14.1048002243042 Z M 5.01479959487915 14.1048002243042 C 4.488439559936523 14.25582981109619 3.961859703063965 14.44085025787354 3.449699878692627 14.65469932556152 C 4.2605299949646 15.44808959960938 5.207599639892578 16.04758071899414 6.264899730682373 16.43490028381348 C 5.770519733428955 15.80832004547119 5.3503098487854 15.02383995056152 5.01479959487915 14.1048002243042 Z M 13.78259944915771 9.51569938659668 C 13.74463939666748 10.78256988525391 13.57384967803955 11.98742961883545 13.27499961853027 13.09679985046387 C 13.95606994628906 13.29358959197998 14.62580013275146 13.53806018829346 15.26490020751953 13.82219982147217 C 16.22781944274902 12.57323932647705 16.7924690246582 11.08397960662842 16.8966007232666 9.51569938659668 L 13.78259944915771 9.51569938659668 Z M 1.077299833297729 9.51569938659668 C 1.181099772453308 11.08568000793457 1.745339751243591 12.57483959197998 2.708999872207642 13.82219982147217 C 3.350269794464111 13.53670024871826 4.019869804382324 13.29273986816406 4.697999954223633 13.09679985046387 C 4.398549556732178 11.98520946502686 4.228299617767334 10.77993965148926 4.191299915313721 9.51569938659668 L 1.077299833297729 9.51569938659668 Z M 9.51569938659668 9.51569938659668 L 9.51569938659668 12.50549983978271 C 10.44034957885742 12.53604984283447 11.35877990722656 12.64811992645264 12.24450016021729 12.8375997543335 C 12.52353954315186 11.80327987670898 12.68532943725586 10.68538951873779 12.72420024871826 9.51569938659668 L 9.51569938659668 9.51569938659668 Z M 5.249699592590332 9.51569938659668 C 5.287529945373535 10.68031024932861 5.448919773101807 11.79795932769775 5.729399681091309 12.8375997543335 C 6.618349552154541 12.64742946624756 7.536849975585938 12.53594017028809 8.458199501037598 12.50549983978271 L 8.458199501037598 9.51569938659668 L 5.249699592590332 9.51569938659668 Z M 15.26490020751953 4.151700019836426 C 14.62168979644775 4.43766975402832 13.95219993591309 4.681419849395752 13.27499961853027 4.876199722290039 C 13.57417011260986 5.987679958343506 13.74471950531006 7.193249702453613 13.78259944915771 8.458199501037598 L 16.8966007232666 8.458199501037598 C 16.79315948486328 6.89178991317749 16.22926902770996 5.402259826660156 15.26490020751953 4.151700019836426 Z M 12.24450016021729 5.13539981842041 C 11.35879993438721 5.325769901275635 10.44069957733154 5.437809944152832 9.51569938659668 5.468400001525879 L 9.51569938659668 8.458199501037598 L 12.72420024871826 8.458199501037598 C 12.68548011779785 7.292219638824463 12.52442932128906 6.173919677734375 12.24450016021729 5.13539981842041 Z M 5.729399681091309 5.13539981842041 C 5.448869705200195 6.176179885864258 5.287479877471924 7.294129848480225 5.249699592590332 8.458199501037598 L 8.458199501037598 8.458199501037598 L 8.458199501037598 5.468400001525879 C 7.531899929046631 5.437789916992188 6.613479614257812 5.325409889221191 5.729399681091309 5.13539981842041 Z M 2.708999872207642 4.151700019836426 C 1.745479822158813 5.398919582366943 1.181249737739563 6.888079643249512 1.077299833297729 8.458199501037598 L 4.191299915313721 8.458199501037598 C 4.228329658508301 7.191969871520996 4.399149894714355 5.986489772796631 4.697999954223633 4.876199722290039 C 4.018029689788818 4.680619716644287 3.348599672317505 4.436450004577637 2.708999872207642 4.151700019836426 Z M 9.51569938659668 1.141199827194214 L 9.51569938659668 4.409999847412109 C 10.32357025146484 4.381459712982178 11.1330099105835 4.284899711608887 11.92049980163574 4.121999740600586 C 11.31157970428467 2.496669769287109 10.45779991149902 1.437589764595032 9.51569938659668 1.141199827194214 Z M 8.458199501037598 1.141199827194214 C 7.515659809112549 1.437449812889099 6.661619663238525 2.496049880981445 6.053399562835693 4.121999740600586 C 6.835259914398193 4.283919811248779 7.644599914550781 4.381259918212891 8.458199501037598 4.409999847412109 L 8.458199501037598 1.141199827194214 Z M 11.70899963378906 1.538999795913696 C 12.20267009735107 2.163769721984863 12.62296009063721 2.947429895401001 12.9581995010376 3.868199825286865 C 13.48163986206055 3.718249797821045 14.00893020629883 3.53344988822937 14.52419948577881 3.318299770355225 C 13.71134948730469 2.524779796600342 12.76428985595703 1.925579786300659 11.70899963378906 1.538999795913696 Z M 6.264899730682373 1.538999795913696 C 5.209179878234863 1.925739765167236 4.262009620666504 2.524389743804932 3.449699878692627 3.318299770355225 C 3.957959890365601 3.53050971031189 4.484639644622803 3.716079711914062 5.01479959487915 3.868199825286865 C 5.351409912109375 2.946139812469482 5.772409915924072 2.162279844284058 6.264899730682373 1.538999795913696 Z" stroke="none" fill="#fff"/>
    </g>
    <path id="Fill_2" data-name="Fill 2" d="M29.075,43.348H3.348A3.352,3.352,0,0,1,0,40V3.348A3.352,3.352,0,0,1,3.348,0H29.075a3.352,3.352,0,0,1,3.348,3.348V40A3.352,3.352,0,0,1,29.075,43.348ZM3.348,1.058a2.293,2.293,0,0,0-2.29,2.291V40a2.293,2.293,0,0,0,2.29,2.29H29.075A2.293,2.293,0,0,0,31.365,40V3.348a2.293,2.293,0,0,0-2.29-2.291Z" transform="translate(11.597 6.652)" fill="#fff" stroke="#fff" stroke-miterlimit="10" stroke-width="0.5"/>
    <path id="Fill_3" data-name="Fill 3" d="M1.128,10.232A2.293,2.293,0,0,1,2.786,7.449l24.938-6.32a2.289,2.289,0,0,1,2.783,1.658l.624,2.464a.529.529,0,0,0,1.025-.26l-.624-2.464A3.346,3.346,0,0,0,27.464.1L2.526,6.424A3.352,3.352,0,0,0,.1,10.492l9,35.529a.529.529,0,0,0,1.025-.26l-9-35.529" fill="#fff" stroke="#fff" stroke-miterlimit="10" stroke-width="0.5"/>
    <path id="Fill_4" data-name="Fill 4" d="M19.207,0H.529a.529.529,0,1,0,0,1.057H19.207a.529.529,0,1,0,0-1.057" transform="translate(17.941 37.137)" fill="#fff" stroke="#fff" stroke-miterlimit="10" stroke-width="0.5"/>
    <path id="Fill_5" data-name="Fill 5" d="M15.507,0H.529a.529.529,0,1,0,0,1.057H15.507a.529.529,0,1,0,0-1.057" transform="translate(19.791 41.013)" fill="#fff" stroke="#fff" stroke-miterlimit="10" stroke-width="0.5"/>
  </g>
</svg>
