<svg id="Group_10" data-name="Group 10" xmlns="http://www.w3.org/2000/svg" width="39" height="52.097" viewBox="0 0 39 52.097">
  <path id="Fill_17" data-name="Fill 17" d="M7.349,0,0,16.716l7.073-2.107L10.3,21.7,17.826,2.172,7.349,0" transform="translate(5.188 30.4)" fill="#ece0e3"/>
  <path id="Fill_18" data-name="Fill 18" d="M9.964,20.976H9.94A.814.814,0,0,1,9.2,20.5l-2.54-5.58L1.044,16.594a.818.818,0,0,1-.234.034.812.812,0,0,1-.742-1.138L6.665.485A.812.812,0,0,1,7.574.017l9.253,1.918a.81.81,0,0,1,.592,1.086L10.7,20.457A.812.812,0,0,1,9.964,20.976Zm-3.2-7.716a1.441,1.441,0,0,1,1.31.843l1.807,3.965,5.682-14.74L7.887,1.74l-5.628,12.8L6.35,13.32A1.452,1.452,0,0,1,6.762,13.261Z" transform="translate(5.499 30.308)" fill="#761c33"/>
  <path id="Fill_19" data-name="Fill 19" d="M10.477,0l7.349,16.716-7.073-2.107L7.526,21.7,0,2.172,10.477,0" transform="translate(16.623 30.4)" fill="#ece0e3"/>
  <path id="Fill_20" data-name="Fill 20" d="M7.533,20.976H7.51a.812.812,0,0,1-.734-.519L.055,3.021A.812.812,0,0,1,.647,1.935L9.9.017a.811.811,0,0,1,.907.468l6.6,15.006a.811.811,0,0,1-.975,1.1l-5.618-1.673L8.271,20.5A.812.812,0,0,1,7.533,20.976ZM9.587,1.74,1.913,3.329,7.6,18.069,9.4,14.1a1.448,1.448,0,0,1,1.317-.843,1.428,1.428,0,0,1,.405.059l4.092,1.219Z" transform="translate(16.664 30.308)" fill="#761c33"/>
  <path id="Fill_21" data-name="Fill 21" d="M38.233,19.859,35.527,22.49a1.326,1.326,0,0,0-.357,1.291l.968,3.652a1.328,1.328,0,0,1-.975,1.631l-3.672.874a1.327,1.327,0,0,0-.971.94l-1,3.649a1.327,1.327,0,0,1-1.653.922l-3.627-1.06a1.328,1.328,0,0,0-1.316.341l-2.663,2.693a1.327,1.327,0,0,1-1.887,0L15.711,34.73a1.326,1.326,0,0,0-1.315-.341l-3.629,1.06a1.326,1.326,0,0,1-1.651-.922l-1-3.649a1.325,1.325,0,0,0-.971-.94l-3.67-.874A1.326,1.326,0,0,1,2.5,27.433l.967-3.652a1.326,1.326,0,0,0-.357-1.291L.4,19.859a1.327,1.327,0,0,1,0-1.9l2.706-2.631a1.326,1.326,0,0,0,.357-1.291L2.5,10.382a1.326,1.326,0,0,1,.975-1.631l3.67-.875a1.325,1.325,0,0,0,.971-.94l1-3.649a1.327,1.327,0,0,1,1.651-.923L14.4,3.426a1.326,1.326,0,0,0,1.315-.34L18.374.394a1.327,1.327,0,0,1,1.887,0l2.663,2.692a1.327,1.327,0,0,0,1.316.34l3.627-1.06a1.327,1.327,0,0,1,1.653.923l1,3.649a1.327,1.327,0,0,0,.971.94l3.672.875a1.328,1.328,0,0,1,.975,1.631l-.968,3.652a1.326,1.326,0,0,0,.357,1.291l2.706,2.631a1.327,1.327,0,0,1,0,1.9" transform="translate(0.183 0.183)" fill="#ece0e3"/>
  <path id="Fill_22" data-name="Fill 22" d="M19.5,38.182a1.5,1.5,0,0,1-1.074-.449l-2.663-2.692a1.143,1.143,0,0,0-1.133-.293L11,35.808a1.506,1.506,0,0,1-1.16-.131,1.5,1.5,0,0,1-.719-.919l-1-3.649a1.148,1.148,0,0,0-.839-.811l-3.67-.875A1.509,1.509,0,0,1,2.5,27.569l.968-3.652A1.144,1.144,0,0,0,3.164,22.8L.457,20.173a1.51,1.51,0,0,1,0-2.165l2.706-2.631a1.144,1.144,0,0,0,.308-1.113L2.5,10.612a1.509,1.509,0,0,1,1.11-1.855l3.67-.875a1.148,1.148,0,0,0,.839-.811l1-3.649a1.509,1.509,0,0,1,1.453-1.111A1.522,1.522,0,0,1,11,2.373l3.628,1.06a1.143,1.143,0,0,0,1.134-.293L18.427.448a1.509,1.509,0,0,1,2.146,0L23.236,3.14a1.137,1.137,0,0,0,.813.339,1.151,1.151,0,0,0,.322-.046L28,2.373a1.5,1.5,0,0,1,1.159.131,1.505,1.505,0,0,1,.72.919l1,3.65a1.145,1.145,0,0,0,.838.81l3.671.875A1.51,1.51,0,0,1,36.5,10.612l-.968,3.652a1.145,1.145,0,0,0,.309,1.113l2.705,2.631a1.51,1.51,0,0,1,0,2.165L35.837,22.8a1.145,1.145,0,0,0-.309,1.113L36.5,27.57a1.509,1.509,0,0,1-1.109,1.854l-3.671.875a1.145,1.145,0,0,0-.838.811l-1,3.649a1.512,1.512,0,0,1-1.454,1.111A1.529,1.529,0,0,1,28,35.808l-3.628-1.061a1.158,1.158,0,0,0-.321-.046,1.137,1.137,0,0,0-.813.339l-2.663,2.692A1.5,1.5,0,0,1,19.5,38.182Zm-4.55-5.1a2.748,2.748,0,0,1,1.967.821l2.583,2.61,2.582-2.61a2.764,2.764,0,0,1,2.743-.71l3.517,1.028.971-3.537a2.764,2.764,0,0,1,2.028-1.96l3.557-.848-.939-3.54a2.769,2.769,0,0,1,.746-2.693l2.623-2.55-2.623-2.549a2.771,2.771,0,0,1-.746-2.693l.939-3.54-3.557-.848A2.763,2.763,0,0,1,29.314,7.5l-.971-3.538L24.826,4.991a2.765,2.765,0,0,1-2.743-.71L19.5,1.67,16.917,4.281a2.764,2.764,0,0,1-2.742.71L10.657,3.964,9.688,7.5A2.769,2.769,0,0,1,7.659,9.461L4.1,10.309l.939,3.54a2.768,2.768,0,0,1-.747,2.693l-2.621,2.55L4.294,21.64a2.769,2.769,0,0,1,.747,2.693L4.1,27.872l3.558.848a2.769,2.769,0,0,1,2.028,1.96l.969,3.537,3.518-1.028A2.8,2.8,0,0,1,14.951,33.079Z" fill="#761c33"/>
  <path id="Fill_23" data-name="Fill 23" d="M12.448,24.314A12.319,12.319,0,0,1,0,12.157,12.319,12.319,0,0,1,12.448,0,12.318,12.318,0,0,1,24.894,12.157,12.318,12.318,0,0,1,12.448,24.314Zm0-22.692A10.7,10.7,0,0,0,1.623,12.157,10.7,10.7,0,0,0,12.448,22.692,10.694,10.694,0,0,0,23.271,12.157,10.694,10.694,0,0,0,12.448,1.623Z" transform="translate(7.053 6.933)" fill="#761c33"/>
  <path id="Fill_24" data-name="Fill 24" d="M4.262,8.355a.811.811,0,0,1-.611-.279L.2,4.11A.811.811,0,0,1,1.423,3.045L4.262,6.307,9.506.279a.812.812,0,0,1,1.225,1.065L4.874,8.076a.812.812,0,0,1-.613.279" transform="translate(14.337 15.47)" fill="#761c33"/>
</svg>
