<svg xmlns="http://www.w3.org/2000/svg" width="51.439" height="50.4" viewBox="0 0 51.439 50.4">
  <g id="icon22" transform="translate(0.2 0.2)">
    <path id="Fill_1" data-name="Fill 1" d="M33.942,26.085H24.221a3.388,3.388,0,0,0-2.484,1.083,3.39,3.39,0,0,0-2.484-1.083H1.827V1.827H18.254A2.572,2.572,0,0,1,20.824,4.4V24.441a.913.913,0,0,0,1.827,0V4.4A2.572,2.572,0,0,1,25.22,1.827H41.648V20.385a.913.913,0,1,0,1.827,0V.913A.913.913,0,0,0,42.561,0H25.22a4.39,4.39,0,0,0-3.483,1.718A4.391,4.391,0,0,0,18.254,0H.913A.913.913,0,0,0,0,.913V27a.913.913,0,0,0,.913.913h18.34a1.573,1.573,0,0,1,1.571,1.571.913.913,0,0,0,1.827,0,1.573,1.573,0,0,1,1.571-1.571h9.721a.913.913,0,0,0,0-1.827" transform="translate(3.215 16.367)" fill="#761c33" stroke="#ece0e3" stroke-miterlimit="10" stroke-width="0.4"/>
    <path id="Fill_2" data-name="Fill 2" d="M11.66,14.743a.907.907,0,0,1-.645-.267L8.56,12.021,6.984,13.6a.909.909,0,0,1-.647.267.911.911,0,0,1-.832-.537L.081,1.289A.919.919,0,0,1,.267.267.913.913,0,0,1,1.289.081L13.327,5.505a.913.913,0,0,1,.27,1.479L12.073,8.509l2.453,2.453a.911.911,0,0,1,0,1.291l-2.221,2.222A.908.908,0,0,1,11.66,14.743ZM8.56,9.816a.908.908,0,0,1,.646.268l2.453,2.453.931-.93L10.136,9.154a.914.914,0,0,1,0-1.292l1.235-1.235L2.737,2.737l3.891,8.634,1.286-1.286A.905.905,0,0,1,8.56,9.816Z" transform="translate(36.244 35.257)" fill="#761c33" stroke="#ece0e3" stroke-miterlimit="10" stroke-width="0.4"/>
    <path id="Fill_3" data-name="Fill 3" d="M37.154,25.865H28.24a.908.908,0,0,0-.179.018l-.365.073a.913.913,0,0,0-.734.9,1.792,1.792,0,0,1-1.79,1.79H24.66a1.792,1.792,0,0,1-1.79-1.79.913.913,0,0,0-.913-.913H2.74a.914.914,0,0,1-.913-.913V.913A.913.913,0,1,0,0,.913V25.025a2.743,2.743,0,0,0,2.74,2.74H21.16a3.623,3.623,0,0,0,3.5,2.7h.512a3.624,3.624,0,0,0,3.518-2.777h8.465a.913.913,0,1,0,0-1.827" transform="translate(0 19.509)" fill="#761c33" stroke="#ece0e3" stroke-miterlimit="10" stroke-width="0.4"/>
    <path id="Fill_4" data-name="Fill 4" d="M6.978,1.827A.913.913,0,1,0,6.978,0H.913a.913.913,0,0,0,0,1.827H6.978" transform="translate(10.668 26.596)" fill="#761c33" stroke="#ece0e3" stroke-miterlimit="10" stroke-width="0.4"/>
    <path id="Fill_5" data-name="Fill 5" d="M10.923,0H.913a.913.913,0,1,0,0,1.827h10.01a.913.913,0,1,0,0-1.827" transform="translate(8.549 30.176)" fill="#761c33" stroke="#ece0e3" stroke-miterlimit="10" stroke-width="0.4"/>
    <path id="Fill_6" data-name="Fill 6" d="M10.923,0H.913a.913.913,0,0,0,0,1.827h10.01a.913.913,0,1,0,0-1.827" transform="translate(8.549 33.757)" fill="#761c33" stroke="#ece0e3" stroke-miterlimit="10" stroke-width="0.4"/>
    <path id="Fill_7" data-name="Fill 7" d="M10.923,0H.913a.913.913,0,0,0,0,1.827h10.01a.913.913,0,0,0,0-1.827" transform="translate(8.549 37.337)" fill="#761c33" stroke="#ece0e3" stroke-miterlimit="10" stroke-width="0.4"/>
    <path id="Fill_8" data-name="Fill 8" d="M.913,19.655a.913.913,0,0,0,.913-.913V.913A.913.913,0,1,0,0,.913V18.742a.913.913,0,0,0,.913.913" transform="translate(47.858 19.509)" fill="#761c33" stroke="#ece0e3" stroke-miterlimit="10" stroke-width="0.4"/>
    <path id="Fill_9" data-name="Fill 9" d="M.913,7.087a.914.914,0,0,0,.913-.913V.913A.913.913,0,0,0,0,.913V6.174a.913.913,0,0,0,.913.913" transform="translate(24.039)" fill="#761c33" stroke="#ece0e3" stroke-miterlimit="10" stroke-width="0.4"/>
    <path id="Fill_10" data-name="Fill 10" d="M.449,1.7,4.977,4.378a.913.913,0,0,0,.93-1.572L1.378.127A.913.913,0,1,0,.449,1.7" transform="translate(8.403 8.598)" fill="#761c33" stroke="#ece0e3" stroke-miterlimit="10" stroke-width="0.4"/>
    <path id="Fill_11" data-name="Fill 11" d="M1.865,3.685a.913.913,0,0,0,1.457-1.1L1.642.362a.913.913,0,1,0-1.457,1.1l1.68,2.22" transform="translate(15.909 4.261)" fill="#761c33" stroke="#ece0e3" stroke-miterlimit="10" stroke-width="0.4"/>
    <path id="Fill_12" data-name="Fill 12" d="M.914,4.505a.91.91,0,0,0,.464-.127L5.906,1.7A.913.913,0,1,0,4.977.127L.449,2.805a.913.913,0,0,0,.466,1.7" transform="translate(35.146 8.598)" fill="#761c33" stroke="#ece0e3" stroke-miterlimit="10" stroke-width="0.4"/>
    <path id="Fill_13" data-name="Fill 13" d="M.362,3.862a.913.913,0,0,0,1.279-.177l1.679-2.22A.913.913,0,1,0,1.865.362L.185,2.583A.913.913,0,0,0,.362,3.862" transform="translate(30.489 4.261)" fill="#761c33" stroke="#ece0e3" stroke-miterlimit="10" stroke-width="0.4"/>
  </g>
</svg>
