<svg xmlns="http://www.w3.org/2000/svg" width="19.807" height="19.5" viewBox="0 0 19.807 19.5">
  <g id="Image_2" data-name="Image 2" transform="translate(0.75 0.75)">
    <path id="Stroke_1" data-name="Stroke 1" d="M13.217,0H4.783C1.842,0,0,2.081,0,5.026v7.947C0,15.919,1.834,18,4.783,18h8.434C16.166,18,18,15.919,18,12.974V5.026C18,2.081,16.166,0,13.217,0Z" fill="none" stroke="#761c33" stroke-linecap="round" stroke-linejoin="round" stroke-miterlimit="10" stroke-width="1.5"/>
    <path id="Stroke_3" data-name="Stroke 3" d="M3.6,1.8A1.8,1.8,0,1,1,1.8,0,1.8,1.8,0,0,1,3.6,1.8Z" transform="translate(4.156 4.085)" fill="none" stroke="#761c33" stroke-linecap="round" stroke-linejoin="round" stroke-miterlimit="10" stroke-width="1.5"/>
    <path id="Stroke_5" data-name="Stroke 5" d="M17.025,2.856A22.244,22.244,0,0,0,14.1.327a2.287,2.287,0,0,0-3.083.743c-.746.966-1.212,2.266-2.339,2.876C7.291,4.7,6.476,3.486,5.318,3c-1.292-.541-2.273.432-3.028,1.367S.768,6.23,0,7.157" transform="translate(0.975 9.042)" fill="none" stroke="#761c33" stroke-linecap="round" stroke-linejoin="round" stroke-miterlimit="10" stroke-width="1.5"/>
  </g>
</svg>
