<svg xmlns="http://www.w3.org/2000/svg" width="16.407" height="18.388" viewBox="0 0 16.407 18.388">
  <g id="Notification" transform="matrix(0.966, -0.259, 0.259, 0.966, 0, 3.52)">
    <path id="Path_425" d="M0,9.43V9.255A2.88,2.88,0,0,1,.482,7.8a3.9,3.9,0,0,0,.955-1.851c0-.533,0-1.074.047-1.607C1.724,1.775,4.262,0,6.769,0h.062c2.507,0,5.045,1.775,5.293,4.342.047.533,0,1.074.039,1.607a3.964,3.964,0,0,0,.955,1.859A2.805,2.805,0,0,1,13.6,9.255v.168a2.853,2.853,0,0,1-.675,1.912,3.6,3.6,0,0,1-2.282,1.1,36.062,36.062,0,0,1-7.692,0,3.644,3.644,0,0,1-2.282-1.1A2.883,2.883,0,0,1,0,9.43Z" fill="#9b9b9b"/>
    <path id="Path_421" d="M0,0A2.449,2.449,0,0,0,1.63.9a2.47,2.47,0,0,0,1.8-.5A2.308,2.308,0,0,0,3.85,0" transform="translate(4.844 15.081)" fill="none" stroke="#9b9b9b" stroke-linecap="round" stroke-linejoin="round" stroke-miterlimit="10" stroke-width="1"/>
  </g>
</svg>
