<svg xmlns="http://www.w3.org/2000/svg" width="11.25" height="12" viewBox="0 0 11.25 12">
  <path id="Shape" d="M7.143,12c-2.408,0-3.124-.913-4.167-.936a.75.75,0,0,1-.726.562H.75A.75.75,0,0,1,0,10.875V5.25A.75.75,0,0,1,.75,4.5H3.065c.449-.4,1.078-1.422,1.612-1.955C5,2.225,4.914,0,6.359,0,7.708,0,8.591.749,8.591,2.454a2.99,2.99,0,0,1-.208,1.091h.855A2.04,2.04,0,0,1,11.25,5.551a2.212,2.212,0,0,1-.322,1.168A2.172,2.172,0,0,1,10.717,8.2a2.26,2.26,0,0,1-.406,1.571C10.289,11.076,9.472,12,7.664,12Z" fill="#6e6e6e"/>
</svg>
