<svg xmlns="http://www.w3.org/2000/svg" width="37.879" height="50" viewBox="0 0 37.879 50">
  <g id="_١٢١٢" data-name="١٢١٢" transform="translate(0 0)">
    <path id="Fill_426" data-name="Fill 426" d="M35.665,16.289H.749A.749.749,0,0,1,0,15.541C0,11.8,1.955,7.913,5.364,4.89a19.305,19.305,0,0,1,25.681,0c3.379,3,5.334,6.848,5.364,10.568,0,.031,0,.059,0,.084A.749.749,0,0,1,35.665,16.289ZM18.2,1.5A17.856,17.856,0,0,0,6.357,6.01a15.773,15.773,0,0,0-3.4,4.184,11.389,11.389,0,0,0-1.434,4.6H34.882a11.4,11.4,0,0,0-1.435-4.6,15.778,15.778,0,0,0-3.4-4.184A17.848,17.848,0,0,0,18.2,1.5Z" transform="translate(0.791 33.711)" fill="#fff"/>
    <path id="Fill_427" data-name="Fill 427" d="M19,31.914A11.6,11.6,0,0,1,8.748,14.878v-.019c0-.02,0-.039,0-.06V9.205L.725,6.928a.922.922,0,0,1,0-1.8L18.617.045A1.168,1.168,0,0,1,18.939,0a1.146,1.146,0,0,1,.321.045L37.154,5.127a.922.922,0,0,1,0,1.8l-1.863.528a.455.455,0,0,1,.012.174c0,.024,0,.048,0,.072v6.254a1.315,1.315,0,0,1,.618,1.077,2.629,2.629,0,0,1,.635,1.581,3.861,3.861,0,0,1-1.447,2.909.746.746,0,0,1-.516.207.078.078,0,0,1-.02,0,.068.068,0,0,1-.019,0,.746.746,0,0,1-.516-.207,3.854,3.854,0,0,1-1.448-2.909,2.644,2.644,0,0,1,.595-1.536v-.006a1.323,1.323,0,0,1,.62-1.116V7.879L29.133,9.205v5.469a11.63,11.63,0,0,1,1.461,5.64,11.381,11.381,0,0,1-.365,2.892A11.575,11.575,0,0,1,19,31.914ZM9.642,24.142h0A10.107,10.107,0,0,0,28.4,24.011c-2.7-.827-4.3-2.034-5.027-3.8a9.892,9.892,0,0,1-3.594,2.5,20.992,20.992,0,0,1-8.33,1.477c-.608,0-1.217-.016-1.81-.049Zm.283-8.275a10.118,10.118,0,0,0-.768,6.746c.761.051,1.516.078,2.243.078a20.6,20.6,0,0,0,7.366-1.178A8.219,8.219,0,0,0,22.507,18.9a1.168,1.168,0,0,1,.966-.506,1.22,1.22,0,0,1,.2.016,1.183,1.183,0,0,1,.951.841c.282.959,1.026,2.348,4.22,3.33a10.162,10.162,0,0,0-.788-6.744,18.53,18.53,0,0,1-8.792,2.183A21.96,21.96,0,0,1,9.924,15.866Zm24.231.485a1.037,1.037,0,0,0-.072.354,1.919,1.919,0,0,0,.487,1.189,1.888,1.888,0,0,0,.486-1.209,1.062,1.062,0,0,0-.075-.345,1.37,1.37,0,0,1-.826.011ZM10.241,9.631v4.717a21.248,21.248,0,0,0,9.071,2.142,17,17,0,0,0,8.324-2.124V9.631L19.263,12.01a1.19,1.19,0,0,1-.323.045,1.162,1.162,0,0,1-.323-.045Zm8.7-8.121L3.033,6.027,18.94,10.544,34.846,6.027,18.94,1.51Z" fill="#fff"/>
  </g>
</svg>
